<svg xmlns="http://www.w3.org/2000/svg" xmlns:xlink="http://www.w3.org/1999/xlink" width="30" height="30" viewBox="0 0 30 30">
  <defs>
    <path id="instagram-a" d="M17.3331435,15 C17.3331435,13.7149483 16.2850517,12.6668565 15,12.6668565 C13.7149483,12.6668565 12.6668565,13.7149483 12.6668565,15 C12.6668565,16.2850517 13.7149483,17.3331435 15,17.3331435 C16.2850517,17.3331435 17.3331435,16.2850517 17.3331435,15 Z M18.5908536,15 C18.5908536,16.9868175 16.9868175,18.5908536 15,18.5908536 C13.0131825,18.5908536 11.4091464,16.9868175 11.4091464,15 C11.4091464,13.0131825 13.0131825,11.4091464 15,11.4091464 C16.9868175,11.4091464 18.5908536,13.0131825 18.5908536,15 Z M19.5751485,11.2633249 C19.5751485,11.7281308 19.201481,12.1017984 18.7366751,12.1017984 C18.2718692,12.1017984 17.8982016,11.7281308 17.8982016,11.2633249 C17.8982016,10.798519 18.2718692,10.4248515 18.7366751,10.4248515 C19.201481,10.4248515 19.5751485,10.798519 19.5751485,11.2633249 Z M15,9.25827976 C13.9792497,9.25827976 11.7919277,9.17625519 10.8714297,9.54080885 C10.5524453,9.66840264 10.3154854,9.82333794 10.0694117,10.0694117 C9.82333794,10.3154854 9.66840264,10.5524453 9.54080885,10.8714297 C9.17625519,11.7919277 9.25827976,13.9792497 9.25827976,15 C9.25827976,16.0207503 9.17625519,18.2080723 9.54080885,19.1285703 C9.66840264,19.4475547 9.82333794,19.6845146 10.0694117,19.9305883 C10.3154854,20.1766621 10.5524453,20.3315974 10.8714297,20.4591911 C11.7919277,20.8237448 13.9792497,20.7417202 15,20.7417202 C16.0207503,20.7417202 18.2080723,20.8237448 19.1285703,20.4591911 C19.4475547,20.3315974 19.6845146,20.1766621 19.9305883,19.9305883 C20.1766621,19.6845146 20.3315974,19.4475547 20.4591911,19.1285703 C20.8237448,18.2080723 20.7417202,16.0207503 20.7417202,15 C20.7417202,13.9792497 20.8237448,11.7919277 20.4591911,10.8714297 C20.3315974,10.5524453 20.1766621,10.3154854 19.9305883,10.0694117 C19.6845146,9.82333794 19.4475547,9.66840264 19.1285703,9.54080885 C18.2080723,9.17625519 16.0207503,9.25827976 15,9.25827976 Z M21.9994304,15 C21.9994304,15.9660672 22.0085442,16.9230206 21.9538612,17.8890878 C21.8991781,19.0100903 21.6439906,20.0034991 20.8237448,20.8237448 C20.0034991,21.6439906 19.0100903,21.8991781 17.8890878,21.9538612 C16.9230206,22.0085442 15.9660672,21.9994304 15,21.9994304 C14.0339328,21.9994304 13.0769794,22.0085442 12.1109122,21.9538612 C10.9899097,21.8991781 9.99650094,21.6439906 9.17625519,20.8237448 C8.35600944,20.0034991 8.10082187,19.0100903 8.04613882,17.8890878 C7.99145577,16.9230206 8.00056962,15.9660672 8.00056962,15 C8.00056962,14.0339328 7.99145577,13.0769794 8.04613882,12.1109122 C8.10082187,10.9899097 8.35600944,9.99650094 9.17625519,9.17625519 C9.99650094,8.35600944 10.9899097,8.10082187 12.1109122,8.04613882 C13.0769794,7.99145577 14.0339328,8.00056962 15,8.00056962 C15.9660672,8.00056962 16.9230206,7.99145577 17.8890878,8.04613882 C19.0100903,8.10082187 20.0034991,8.35600944 20.8237448,9.17625519 C21.6439906,9.99650094 21.8991781,10.9899097 21.9538612,12.1109122 C22.0085442,13.0769794 21.9994304,14.0339328 21.9994304,15 Z"/>
  </defs>
  <use fill="#FFF" fill-rule="evenodd" xlink:href="#instagram-a"/>
</svg>
