<svg xmlns="http://www.w3.org/2000/svg" width="30" height="30" viewBox="0 0 30 30">
  <g fill="none" fill-rule="evenodd">
    <path stroke="#FFF" d="M15,8 C17.759089,8 20,10.2828344 20,13.0834234 C20,13.370715 19.9782077,13.6632422 19.9355105,13.9606174 C19.7026182,15.5826537 18.8674288,17.2925872 17.6231213,19.0111415 C17.1098771,19.7200002 16.5606719,20.3824098 16.0112983,20.9809259 L15.7332337,21.278171 C15.688767,21.3247728 15.6452857,21.3698819 15.6028597,21.4134634 L15.2990253,21.7171304 L14.99953,22 L14.6660444,21.6831215 L14.5207655,21.5385535 L14.2663931,21.2764281 C14.1774742,21.1829839 14.0846138,21.0835644 13.9883717,20.9784514 C13.4390693,20.3785184 12.8899319,19.7149352 12.3767497,19.0053245 C11.1521937,17.3120504 10.3233753,15.6286073 10.0755532,14.0319205 C10.0255625,13.7098364 10,13.3935068 10,13.0834234 C10,10.2828344 12.240911,8 15,8 Z"/>
    <path fill="#FFF" fill-rule="nonzero" d="M15,11.3973694 C14.1280621,11.3973694 13.4210526,12.0994844 13.4210526,12.9653861 C13.4210526,13.8312877 14.1280621,14.5334027 15,14.5334027 C15.8719379,14.5334027 16.5789474,13.8312877 16.5789474,12.9653861 C16.5789474,12.0994844 15.8719379,11.3973694 15,11.3973694 Z"/>
  </g>
</svg>
