<svg xmlns="http://www.w3.org/2000/svg" width="30" height="30" viewBox="0 0 30 30">
  <path fill="#FFF" d="M22.6205116,7 C22.8301916,7 23,7.16924212 23,7.37822286 L23,7.37822286 L23,20.477304 C23,21.8683572 21.8645708,23 20.4688631,23 L20.4688631,23 L8.54592874,23 L8.54592874,23 L8.66220398,22.9909731 L8.66220398,22.9909731 L8.684,22.987 L8.65599565,22.989461 C8.60497136,22.9919431 8.54598514,22.9941257 8.49521384,22.9958514 L8.451,22.997 L8.39037213,22.9950275 C7.18912683,22.9158652 7.01290555,21.9010477 7.00072984,20.6366093 L7,15.9555104 C7,15.7465296 7.16993907,15.5772875 7.37961905,15.5772875 L7.37961905,15.5772875 L9.33254882,15.5772875 L9.33254882,7.37822286 C9.33254882,7.16924212 9.50235722,7 9.7120372,7 L9.7120372,7 Z M9.33254887,16.3337332 L7.75930861,16.3337332 L7.75930861,20.477304 C7.75930861,21.4510009 7.86811366,22.2435543 8.54592935,22.2435543 C9.22374503,22.2435543 9.33254887,21.4510009 9.33254887,20.477304 L9.33254887,20.477304 L9.33254887,16.3337332 Z M22.2410232,7.88373031 L10.0915256,7.88373031 L10.0915256,20.477304 C10.0915256,21.1649636 10.2026329,21.6536007 9.79422623,22.2435543 L9.79422623,22.2435543 L20.4688631,22.2435543 C21.445818,22.2435543 22.2410232,21.4510009 22.2410232,20.477304 L22.2410232,20.477304 L22.2410232,7.88373031 Z M16.4686607,18.0822924 C16.6783407,18.0822924 16.8481491,18.2515346 16.8481491,18.4605153 C16.8481491,18.669496 16.6783407,18.8387382 16.4686607,18.8387382 L16.4686607,18.8387382 L11.9844884,18.8387382 C11.7748084,18.8387382 11.605,18.669496 11.605,18.4605153 C11.605,18.2515346 11.7748084,18.0822924 11.9844884,18.0822924 L11.9844884,18.0822924 Z M20.4686607,15.7489591 C20.6783407,15.7489591 20.8481491,15.9182012 20.8481491,16.127182 C20.8481491,16.3361627 20.6783407,16.5054048 20.4686607,16.5054048 L20.4686607,16.5054048 L11.9844884,16.5054048 C11.7748084,16.5054048 11.605,16.3361627 11.605,16.127182 C11.605,15.9182012 11.7748084,15.7489591 11.9844884,15.7489591 L11.9844884,15.7489591 Z M15.6501399,9.33333333 C15.8434493,9.33333333 16,9.48987153 16,9.68316541 L16,9.68316541 L16,13.9835013 C16,14.1767951 15.8434493,14.3333333 15.6501399,14.3333333 L15.6501399,14.3333333 L12.0165267,14.3333333 C11.8230308,14.3333333 11.6666667,14.1767951 11.6666667,13.9835013 L11.6666667,13.9835013 L11.6666667,9.68316541 C11.6666667,9.48987153 11.8232174,9.33333333 12.0165267,9.33333333 L12.0165267,9.33333333 Z M15.3002799,10.0329975 L12.3663868,10.0329975 L12.3663868,13.6336692 L15.3002799,13.6336692 L15.3002799,10.0329975 Z M20.4686607,11.4156258 C20.6783407,11.4156258 20.8481491,11.5848679 20.8481491,11.7938486 C20.8481491,12.0028294 20.6783407,12.1720715 20.4686607,12.1720715 L20.4686607,12.1720715 L17.6511551,12.1720715 C17.4414751,12.1720715 17.2716667,12.0028294 17.2716667,11.7938486 C17.2716667,11.5848679 17.4414751,11.4156258 17.6511551,11.4156258 L17.6511551,11.4156258 Z M20.4686607,9.27115261 C20.6783407,9.27115261 20.8481491,9.44039473 20.8481491,9.64937547 C20.8481491,9.8583562 20.6783407,10.0275983 20.4686607,10.0275983 L20.4686607,10.0275983 L17.6511551,10.0275983 C17.4414751,10.0275983 17.2716667,9.8583562 17.2716667,9.64937547 C17.2716667,9.44039473 17.4414751,9.27115261 17.6511551,9.27115261 L17.6511551,9.27115261 Z"/>
</svg>
