<svg xmlns="http://www.w3.org/2000/svg" width="535" height="125" viewBox="0 0 535 125">
  <path fill="#FFCC47" fill-rule="evenodd"
    d="M413.872,0.516 C435.393,0.516 443.204,18.056 443.204,29.847 L443.204,55.015 L428.085,47.774 L428.085,29.847 C428.029,26.558 426.841,15.635 413.872,15.635 C400.344,15.635 399.66,27.473 399.66,29.847 L399.66,46.948 L443.204,68.72 L443.204,95.164 C443.204,106.952 435.393,124.492 413.872,124.492 C403.828,124.492 396.771,120.669 392.1,115.396 C387.43,120.669 380.374,124.492 370.331,124.492 C360.286,124.492 353.23,120.669 348.559,115.396 C343.888,120.669 336.832,124.492 326.787,124.492 C316.742,124.492 309.686,120.669 305.015,115.396 C300.344,120.669 293.288,124.492 283.243,124.492 C261.725,124.492 253.914,106.952 253.914,95.164 L253.914,28.55 C253.914,24.929 253.936,19.503 250.202,17.315 C244.487,13.964 234.212,14.109 225.489,23.319 L225.489,95.164 C225.489,106.952 217.678,124.492 196.157,124.492 C186.113,124.492 179.057,120.67 174.385,115.396 C169.715,120.67 162.66,124.492 152.616,124.492 L123.285,124.492 L123.285,51.619 C123.285,1.1 173.875,0.516 174.385,0.516 L181.945,0.516 L181.945,95.104 C182.001,98.45 183.188,109.373 196.157,109.373 C209.685,109.373 210.37,97.538 210.37,95.164 L210.37,0.516 C210.37,0.516 219.946,-0.129 225.268,6.868 C225.268,6.868 243.173,-6.45 260.65,5.784 C266.563,9.923 269.033,16.724 269.033,26.579 L269.033,95.164 C269.089,98.45 270.277,109.373 283.243,109.373 C296.77,109.373 297.455,97.538 297.455,95.164 L297.455,51.619 C297.455,11.196 330.883,0.516 348.559,0.516 L356.118,0.516 L356.118,95.104 C356.174,98.45 357.362,109.373 370.331,109.373 C383.856,109.373 384.541,97.538 384.541,95.164 L384.541,72.742 L399.66,80.482 L399.66,95.164 C399.716,98.45 400.903,109.373 413.872,109.373 C426.841,109.373 428.029,98.45 428.085,95.104 L428.085,78.063 L384.541,56.291 L384.541,29.847 C384.541,18.056 392.351,0.516 413.872,0.516 Z M520.621,95.104 C520.677,98.45 521.864,109.373 534.834,109.373 L534.834,124.492 C524.789,124.492 517.733,120.669 513.061,115.396 C508.39,120.669 501.335,124.492 491.29,124.492 L461.958,124.492 L461.958,51.619 C461.958,11.196 495.385,0.516 513.061,0.516 L520.621,0.516 L520.621,95.104 Z M166.826,95.104 L166.826,16.467 C156.13,18.564 138.404,25.917 138.404,51.619 L138.404,109.373 L152.616,109.373 C165.583,109.373 166.77,98.45 166.826,95.104 Z M505.502,95.104 L505.502,16.467 C494.806,18.564 477.077,25.917 477.077,51.619 L477.077,109.373 L491.29,109.373 C504.258,109.373 505.446,98.45 505.502,95.104 Z M340.999,95.104 L340.999,16.467 C330.304,18.564 312.574,25.917 312.574,51.619 L312.574,95.164 C312.631,98.45 313.818,109.373 326.787,109.373 C339.756,109.373 340.944,98.45 340.999,95.104 Z M87.085,109.068 L87.085,1.728 L102.204,1.728 L102.204,124.176 L72.879,124.196 C62.832,124.196 55.775,120.374 51.104,115.099 C46.433,120.374 39.377,124.196 29.332,124.196 C7.81,124.196 8.52651283e-14,106.656 8.52651283e-14,94.865 L8.52651283e-14,1.728 L15.119,1.728 L15.119,94.865 C15.175,98.154 16.362,109.077 29.332,109.077 C42.859,109.077 43.544,97.239 43.544,94.865 L43.544,1.728 L58.663,1.728 L58.663,94.865 C58.719,98.154 59.906,109.077 72.873,109.077 L87.085,109.068 Z" />
</svg>