<svg xmlns="http://www.w3.org/2000/svg" width="521" height="124" viewBox="0 0 521 124">
  <path fill="#ffff54" fill-rule="evenodd" d="M331.999,93.65 C331.944,96.996 330.756,108.857 317.787,108.857 C304.818,108.857 303.631,97.937 303.574,94.65 L303.574,51.103 C303.574,25.401 321.304,18.048 331.999,15.952 L331.999,93.65 Z M159.826,94.589 C159.77,97.935 158.583,108.857 145.616,108.857 L131.404,108.857 L131.404,51.103 C131.404,25.401 149.13,18.048 159.826,15.952 L159.826,94.589 Z M404.872,2.20268248e-13 C383.351,2.20268248e-13 375.541,17.541 375.541,29.332 L375.541,55.775 L419.085,77.547 L419.085,94.65 C419.029,97.996 417.841,108.857 404.872,108.857 C391.903,108.857 390.716,97.937 390.66,94.65 L390.66,79.966 L375.541,72.226 L375.541,94.65 C375.541,97.024 374.856,108.857 361.331,108.857 C348.362,108.857 347.174,97.996 347.118,94.65 L347.118,2.20268248e-13 L339.559,2.20268248e-13 C321.883,2.20268248e-13 288.455,10.681 288.455,51.103 L288.455,94.65 C288.455,97.024 287.77,108.857 274.243,108.857 C261.277,108.857 260.089,97.937 260.033,94.65 C260.031804,47.6341015 260.031211,24.0741015 260.031223,23.97 C259.529555,9.93406246 250.427747,0.299411471 235.7,6.60723032e-13 C229.039389,4.08562073e-17 221.28097,2.61073921 216.489,6.258774 C214.030955,2.94120294 206.09627,2.20268248e-13 201.37,2.20268248e-13 L201.37,94.648 C201.37,97.022 200.685,108.857 187.157,108.857 C174.188,108.857 175.001,97.935 174.945,94.589 L174.945,3.2393669e-13 L167.385,3.2393669e-13 C166.875,3.2393669e-13 116.285,0.585 116.285,51.103 L116.285,123.977 L145.616,123.977 C155.66,123.977 162.715,120.154 167.385,114.88 C172.057,120.154 177.113,123.977 187.157,123.977 C208.678,123.977 216.489,106.436 216.489,94.648 L216.489,23.97 C218.084102,20.865446 227.546189,14.952 235.695578,14.952 C240.403454,14.952 244.914,18.5109451 244.914,23.97 L244.914,94.65 C244.914,106.438 252.725,123.977 274.243,123.977 C284.288,123.977 291.344,120.154 296.015,114.88 C300.686,120.154 307.742,123.977 317.787,123.977 C327.832,123.977 334.888,120.154 339.559,114.88 C344.23,120.154 351.286,123.977 361.331,123.977 C371.374,123.977 378.43,120.154 383.1,114.88 C387.771,120.154 394.828,123.977 404.872,123.977 C426.393,123.977 434.204,106.438 434.204,94.65 L434.204,68.204 L390.66,46.432 L390.66,29.332 C390.66,26.958 391.344,15.119 404.872,15.119 C417.841,15.119 419.029,26.042 419.085,29.332 L419.085,44.51 L434.204,51.75 L434.204,29.332 C434.204,17.541 426.393,2.20268248e-13 404.872,2.20268248e-13 Z M491.502,94.589 C491.446,97.935 490.258,108.857 477.29,108.857 L463.077,108.857 L463.077,51.103 C463.077,25.401 480.806,18.048 491.502,15.952 L491.502,94.589 Z M506.621,94.589 L506.621,-7.10542736e-15 L499.061,-7.10542736e-15 C481.385,-7.10542736e-15 447.958,10.681 447.958,51.103 L447.958,123.977 L477.29,123.977 C487.335,123.977 494.39,120.154 499.061,114.88 C503.733,120.154 510.789,123.977 520.834,123.977 L520.834,108.857 C507.864,108.857 506.677,97.935 506.621,94.589 Z M72.873,108.86 C59.906,108.86 58.719,97.639 58.663,94.349 L58.663,-7.10542736e-15 L43.544,-7.10542736e-15 L43.544,94.349 C43.544,96.723 42.859,108.86 29.332,108.86 C16.362,108.86 15.175,97.639 15.119,94.349 L15.119,-7.10542736e-15 L-1.13686838e-13,-7.10542736e-15 L-1.13686838e-13,94.349 C-1.13686838e-13,108.86 7.81,123.681 29.332,123.681 C39.377,123.681 46.433,119.858 51.104,114.584 C55.775,119.858 62.832,123.681 72.879,123.681 L102.204,123.66 L102.204,-7.10542736e-15 L87.085,-7.10542736e-15 L87.085,108.86 L72.873,108.86 Z"/>
</svg>
